<svg xmlns="http://www.w3.org/2000/svg" viewBox="0 0 1000 1000"><defs><style>.cls-1,.cls-12,.cls-7,.cls-9{fill:none;}.cls-2{fill:#24f45c;}.cls-3{fill:#ff7149;}.cls-4{fill:#b800d9;}.cls-5{fill:#f7f644;}.cls-6{fill:#62b0f4;}.cls-10,.cls-11,.cls-12,.cls-13,.cls-7,.cls-8,.cls-9{stroke:#000;}.cls-10,.cls-12,.cls-7,.cls-9{stroke-miterlimit:10;}.cls-7{stroke-width:20px;}.cls-10,.cls-11,.cls-8{fill:#fff;}.cls-11,.cls-13,.cls-8{stroke-linejoin:round;}.cls-8{stroke-width:46px;}.cls-10,.cls-11,.cls-9{stroke-width:8px;}.cls-12{stroke-linecap:round;}.cls-12,.cls-13{stroke-width:20.06px;}.cls-13{fill:#ff0;}</style></defs><title>Logo sketch V2</title><g id="Logo"><polygon class="cls-1" points="774.51 725 687.9 725 601.3 725 514.7 725 428.1 725 341.5 725 254.89 725 168.29 725 81.69 725 64.61 725 64.61 725 81.69 725 168.29 725 254.89 725 341.5 725 428.1 725 514.7 725 601.3 725 687.9 725 774.51 725 861.11 725 935.39 725 935.39 725 861.11 725 774.51 725"/><path class="cls-2" d="M371.53,27A486.12,486.12,0,0,0,305.8,50h79Z"/><path class="cls-3" d="M471.4,50,449.78,12.54Q425.65,15,402.26,19.75L384.8,50Z"/><path class="cls-2" d="M558,50,535.65,11.29Q518,10,500,10c-1.84,0-3.69,0-5.52,0L471.4,50Z"/><path class="cls-2" d="M644.61,50,631.88,28a487.64,487.64,0,0,0-54.31-11.85L558,50Z"/><path class="cls-2" d="M694.2,50q-19.89-8.59-40.67-15.46L644.61,50Z"/><path class="cls-4" d="M402.26,19.75Q386.72,22.9,371.53,27L384.8,50Z"/><path class="cls-5" d="M494.48,10q-22.62.26-44.7,2.51L471.4,50Z"/><path class="cls-3" d="M577.57,16.11q-20.69-3.28-41.92-4.82L558,50Z"/><path class="cls-6" d="M653.53,34.54Q642.82,31,631.88,28l12.73,22Z"/><path class="cls-6" d="M254.89,125l-21-36.47A493,493,0,0,0,184.59,125h70.3Z"/><path class="cls-2" d="M341.42,125h.08L299.74,52.67c-1.4.62-2.79,1.26-4.18,1.9L254.89,125Z"/><polygon class="cls-3" points="428.1 125 384.8 50 341.5 125 428.02 125 428.1 125"/><polygon class="cls-4" points="514.63 125 514.7 125 471.4 50 428.1 125 514.63 125"/><polygon class="cls-6" points="601.23 125 601.3 125 558 50 514.7 125 601.23 125"/><polygon class="cls-2" points="687.83 125 687.91 125 644.61 50 601.3 125 687.83 125"/><path class="cls-5" d="M774.43,125h.08l-28-48.59q-11.4-6.64-23.17-12.69L687.91,125Z"/><path class="cls-6" d="M815.41,125q-13.68-11.5-28.18-22l-12.72,22Z"/><path class="cls-4" d="M295.56,54.57a488.46,488.46,0,0,0-61.72,34l21,36.47Z"/><path class="cls-4" d="M384.8,50h-79c-2,.88-4.05,1.76-6.06,2.67L341.5,125Z"/><polygon class="cls-6" points="471.4 50 384.8 50 428.1 125 471.4 50"/><polygon class="cls-3" points="558 50 471.4 50 514.7 125 558 50"/><polygon class="cls-5" points="644.61 50 558 50 601.3 125 644.61 50"/><path class="cls-4" d="M687.91,125l35.38-61.28Q709,56.4,694.2,50H644.61Z"/><path class="cls-2" d="M787.23,103q-19.68-14.25-40.77-26.56l28,48.59Z"/><path class="cls-2" d="M119.71,191q-3.63,4.45-7.16,9h12.37Z"/><path class="cls-5" d="M211.52,200l-37.84-65.53q-12.6,11.25-24.41,23.35L124.92,200Z"/><polygon class="cls-2" points="254.82 125 211.52 200 298.12 200 254.82 125"/><polygon class="cls-5" points="384.72 200 341.42 125 298.12 200 384.72 200"/><polygon class="cls-2" points="428.02 125 384.72 200 471.33 200 428.02 125"/><polygon class="cls-5" points="557.93 200 514.63 125 471.33 200 557.93 200"/><polygon class="cls-3" points="644.53 200 601.23 125 557.93 200 644.53 200"/><polygon class="cls-2" points="731.13 200 687.83 125 644.53 200 731.13 200"/><polygon class="cls-5" points="817.74 200 774.43 125 731.13 200 817.74 200"/><path class="cls-6" d="M887.45,200a492.41,492.41,0,0,0-42.18-47.68L817.74,200Z"/><path class="cls-6" d="M149.27,157.82q-15.51,15.9-29.56,33.17l5.21,9Z"/><path class="cls-3" d="M254.82,125H184.59q-5.52,4.65-10.91,9.47L211.52,200Z"/><polygon class="cls-3" points="341.42 125 254.9 125 254.82 125 298.12 200 341.42 125"/><polygon class="cls-6" points="428.02 125 341.5 125 341.42 125 384.72 200 428.02 125"/><polygon class="cls-3" points="514.63 125 428.1 125 428.02 125 471.33 200 514.63 125"/><polygon class="cls-6" points="601.23 125 514.7 125 514.63 125 557.93 200 601.23 125"/><polygon class="cls-6" points="687.83 125 601.3 125 601.23 125 644.53 200 687.83 125"/><polygon class="cls-3" points="731.13 200 774.43 125 687.91 125 687.83 125 731.13 200"/><path class="cls-3" d="M774.43,125l43.31,75,27.53-47.68Q830.9,138.06,815.41,125h-41Z"/><path class="cls-4" d="M72.83,259.78q-4.24,7.53-8.22,15.22h17Z"/><polygon class="cls-2" points="124.92 200 81.61 275 81.69 275 168.22 275 124.92 200"/><polygon class="cls-4" points="168.29 275 254.82 275 211.52 200 168.22 275 168.29 275"/><polygon class="cls-3" points="341.42 275 298.12 200 254.82 275 254.9 275 341.42 275"/><polygon class="cls-4" points="341.5 275 428.02 275 384.72 200 341.42 275 341.5 275"/><polygon class="cls-6" points="514.63 275 471.33 200 428.02 275 428.1 275 514.63 275"/><polygon class="cls-6" points="514.7 275 601.23 275 557.93 200 514.63 275 514.7 275"/><polygon class="cls-2" points="601.3 275 687.83 275 644.53 200 601.23 275 601.3 275"/><polygon class="cls-6" points="687.91 275 774.43 275 731.13 200 687.83 275 687.91 275"/><polygon class="cls-6" points="774.51 275 861.04 275 817.74 200 774.43 275 774.51 275"/><path class="cls-2" d="M861.11,275h74.28A490.36,490.36,0,0,0,897,212.73L861,275Z"/><path class="cls-5" d="M124.92,200H112.55a492.43,492.43,0,0,0-39.72,59.78L81.61,275Z"/><polygon class="cls-3" points="211.52 200 124.92 200 168.22 275 211.52 200"/><polygon class="cls-6" points="298.12 200 211.52 200 254.82 275 298.12 200"/><polygon class="cls-6" points="384.72 200 298.12 200 341.42 275 384.72 200"/><polygon class="cls-5" points="471.33 200 384.72 200 428.02 275 471.33 200"/><polygon class="cls-4" points="557.93 200 471.33 200 514.63 275 557.93 200"/><polygon class="cls-4" points="644.53 200 557.93 200 601.23 275 644.53 200"/><polygon class="cls-5" points="687.83 275 731.13 200 644.53 200 687.83 275"/><polygon class="cls-3" points="774.43 275 817.74 200 731.13 200 774.43 275"/><path class="cls-5" d="M861,275l36-62.27q-4.66-6.45-9.54-12.73H817.74Z"/><path class="cls-5" d="M35.2,344.48q-.91,2.76-1.81,5.52h5Z"/><polygon class="cls-2" points="81.69 275 38.39 350 124.99 350 81.69 275"/><polygon class="cls-2" points="168.29 275 124.99 350 211.59 350 168.29 275"/><polygon class="cls-4" points="254.9 275 211.59 350 298.2 350 254.9 275"/><polygon class="cls-5" points="384.8 350 341.5 275 298.2 350 384.8 350"/><polygon class="cls-5" points="428.1 275 384.8 350 471.4 350 428.1 275"/><polygon class="cls-5" points="558 350 514.7 275 471.4 350 558 350"/><polygon class="cls-6" points="644.61 350 601.3 275 558 350 644.61 350"/><polygon class="cls-3" points="731.21 350 687.91 275 644.61 350 731.21 350"/><polygon class="cls-4" points="817.81 350 774.51 275 731.21 350 817.81 350"/><polygon class="cls-4" points="904.41 350 861.11 275 817.81 350 904.41 350"/><path class="cls-3" d="M966.61,350a486.3,486.3,0,0,0-25.49-63.58L904.41,350Z"/><path class="cls-3" d="M81.69,275H64.61A486.64,486.64,0,0,0,35.2,344.48L38.39,350Z"/><polygon class="cls-6" points="168.29 275 168.22 275 81.69 275 124.99 350 168.29 275"/><polygon class="cls-5" points="254.9 275 254.82 275 168.29 275 211.59 350 254.9 275"/><polygon class="cls-3" points="341.5 275 341.42 275 254.9 275 298.2 350 341.5 275"/><polygon class="cls-3" points="428.1 275 428.02 275 341.5 275 384.8 350 428.1 275"/><polygon class="cls-3" points="514.7 275 514.63 275 428.1 275 471.4 350 514.7 275"/><polygon class="cls-3" points="601.3 275 601.23 275 514.7 275 558 350 601.3 275"/><polygon class="cls-5" points="644.61 350 687.91 275 687.83 275 601.3 275 644.61 350"/><polygon class="cls-2" points="731.21 350 774.51 275 774.43 275 687.91 275 731.21 350"/><polygon class="cls-5" points="817.81 350 861.11 275 861.04 275 774.51 275 817.81 350"/><path class="cls-6" d="M904.41,350l36.71-63.58q-2.79-5.75-5.73-11.42H861.11Z"/><path class="cls-2" d="M38.39,350,28,368a487.59,487.59,0,0,0-12.28,57h66Z"/><polygon class="cls-5" points="124.99 350 81.69 425 168.29 425 124.99 350"/><polygon class="cls-2" points="211.59 350 168.29 425 254.9 425 211.59 350"/><polygon class="cls-6" points="298.2 350 254.9 425 341.5 425 298.2 350"/><polygon class="cls-3" points="384.8 350 341.5 425 428.1 425 384.8 350"/><polygon class="cls-2" points="428.1 425 514.7 425 471.4 350 428.1 425"/><polygon class="cls-4" points="514.7 425 601.3 425 558 350 514.7 425"/><polygon class="cls-6" points="601.3 425 687.91 425 644.61 350 601.3 425"/><polygon class="cls-5" points="687.91 425 774.51 425 731.21 350 687.91 425"/><polygon class="cls-2" points="774.51 425 861.11 425 817.81 350 774.51 425"/><polygon class="cls-5" points="861.11 425 947.72 425 904.41 350 861.11 425"/><path class="cls-6" d="M947.72,425h36.57q-3.64-23.81-9.55-46.8Z"/><path class="cls-2" d="M33.39,350q-2.87,8.92-5.4,18l10.4-18Z"/><polygon class="cls-4" points="38.39 350 81.69 425 124.99 350 38.39 350"/><polygon class="cls-6" points="124.99 350 168.29 425 211.59 350 124.99 350"/><polygon class="cls-3" points="211.59 350 254.9 425 298.2 350 211.59 350"/><polygon class="cls-2" points="298.2 350 341.5 425 384.8 350 298.2 350"/><polygon class="cls-6" points="471.4 350 384.8 350 428.1 425 471.4 350"/><polygon class="cls-3" points="471.4 350 514.7 425 558 350 471.4 350"/><polygon class="cls-2" points="601.3 425 644.61 350 558 350 601.3 425"/><polygon class="cls-4" points="687.91 425 731.21 350 644.61 350 687.91 425"/><polygon class="cls-6" points="774.51 425 817.81 350 731.21 350 774.51 425"/><polygon class="cls-6" points="861.11 425 904.41 350 817.81 350 861.11 425"/><path class="cls-4" d="M947.72,425l27-46.8q-3.66-14.28-8.13-28.2h-62.2Z"/><path class="cls-6" d="M12.1,454.46Q10,476.95,10,500H38.39Z"/><polygon class="cls-3" points="81.69 425 38.39 500 124.99 500 81.69 425"/><polygon class="cls-3" points="168.29 425 124.99 500 211.59 500 168.29 425"/><polygon class="cls-4" points="254.9 425 211.59 500 298.2 500 254.9 425"/><polygon class="cls-6" points="298.2 500 384.8 500 341.5 425 298.2 500"/><polygon class="cls-3" points="384.8 500 471.4 500 428.1 425 384.8 500"/><polygon class="cls-2" points="471.4 500 558 500 514.7 425 471.4 500"/><polygon class="cls-4" points="558 500 644.61 500 601.3 425 558 500"/><polygon class="cls-6" points="644.61 500 731.21 500 687.91 425 644.61 500"/><polygon class="cls-6" points="731.21 500 817.81 500 774.51 425 731.21 500"/><polygon class="cls-4" points="817.81 500 904.41 500 861.11 425 817.81 500"/><path class="cls-4" d="M904.41,500H990c0-.59,0-1.19,0-1.78L947.72,425Z"/><path class="cls-6" d="M81.69,425h-66q-2.25,14.6-3.61,29.46L38.39,500Z"/><polygon class="cls-2" points="168.29 425 81.69 425 124.99 500 168.29 425"/><polygon class="cls-5" points="254.9 425 168.29 425 211.59 500 254.9 425"/><polygon class="cls-3" points="341.5 425 254.9 425 298.2 500 341.5 425"/><polygon class="cls-4" points="341.5 425 384.8 500 428.1 425 341.5 425"/><polygon class="cls-5" points="428.1 425 471.4 500 514.7 425 428.1 425"/><polygon class="cls-5" points="514.7 425 558 500 601.3 425 514.7 425"/><polygon class="cls-5" points="644.61 500 687.91 425 601.3 425 644.61 500"/><polygon class="cls-2" points="731.21 500 774.51 425 687.91 425 731.21 500"/><polygon class="cls-5" points="817.81 500 861.11 425 774.51 425 817.81 500"/><polygon class="cls-2" points="904.41 500 947.72 425 861.11 425 904.41 500"/><path class="cls-3" d="M990,498.22a493.55,493.55,0,0,0-5.7-73.22H947.72Z"/><path class="cls-5" d="M81.69,575l-43.3-75L12.1,545.54q1.37,14.87,3.61,29.46Z"/><polygon class="cls-2" points="124.99 500 81.69 575 168.29 575 168.29 575 124.99 500"/><polygon class="cls-4" points="168.29 575 254.89 575 254.89 575 211.59 500 168.29 575"/><polygon class="cls-2" points="254.9 575 341.5 575 341.5 575 298.2 500 254.9 575"/><polygon class="cls-6" points="341.5 575 428.1 575 428.1 575 384.8 500 341.5 575"/><polygon class="cls-4" points="428.1 575 514.7 575 514.7 575 471.4 500 428.1 575"/><polygon class="cls-3" points="514.7 575 601.3 575 601.3 575 558 500 514.7 575"/><polygon class="cls-2" points="601.31 575 687.9 575 687.91 575 644.61 500 601.31 575"/><polygon class="cls-5" points="774.51 575 774.51 575 731.21 500 687.91 575 774.51 575"/><polygon class="cls-6" points="861.11 575 861.11 575 817.81 500 774.51 575 861.11 575"/><polygon class="cls-5" points="947.71 575 947.71 575 904.41 500 861.11 575 947.71 575"/><path class="cls-4" d="M984.29,575a493.55,493.55,0,0,0,5.7-73.22L947.72,575Z"/><path class="cls-2" d="M10,500q0,23,2.1,45.54L38.39,500Z"/><polygon class="cls-6" points="124.99 500 38.39 500 81.69 575 81.69 575 124.99 500"/><polygon class="cls-6" points="168.29 575 211.59 500 124.99 500 168.29 575 168.29 575"/><polygon class="cls-5" points="211.59 500 254.89 575 254.9 575 298.2 500 211.59 500"/><polygon class="cls-5" points="298.2 500 341.5 575 341.5 575 384.8 500 298.2 500"/><polygon class="cls-5" points="384.8 500 428.1 575 428.1 575 471.4 500 384.8 500"/><polygon class="cls-6" points="471.4 500 514.7 575 514.7 575 558 500 471.4 500"/><polygon class="cls-6" points="558 500 601.3 575 601.31 575 644.61 500 558 500"/><polygon class="cls-3" points="687.91 575 687.91 575 731.21 500 644.61 500 687.91 575"/><polygon class="cls-3" points="774.51 575 774.51 575 817.81 500 731.21 500 774.51 575"/><polygon class="cls-3" points="861.11 575 861.11 575 904.41 500 817.81 500 861.11 575"/><path class="cls-6" d="M947.71,575h0L990,501.78c0-.59,0-1.19,0-1.78H904.41Z"/><path class="cls-3" d="M28,632q2.54,9.06,5.4,18h5Z"/><polygon class="cls-5" points="81.69 575 38.39 650 124.99 650 81.69 575"/><polygon class="cls-3" points="124.99 650 211.59 650 168.29 575 124.99 650"/><polygon class="cls-4" points="211.59 650 298.19 650 254.89 575 211.59 650"/><polygon class="cls-2" points="298.19 650 384.8 650 341.5 575 298.19 650"/><polygon class="cls-5" points="384.8 650 471.4 650 428.1 575 384.8 650"/><polygon class="cls-6" points="471.4 650 558 650 514.7 575 471.4 650"/><polygon class="cls-2" points="558 650 644.6 650 601.3 575 558 650"/><polygon class="cls-6" points="644.6 650 731.21 650 687.9 575 644.6 650"/><polygon class="cls-4" points="731.21 650 817.81 650 774.51 575 731.21 650"/><polygon class="cls-5" points="817.81 650 904.41 650 861.11 575 817.81 650"/><path class="cls-2" d="M904.41,650h62.2q4.47-13.92,8.13-28.19l-27-46.81Z"/><path class="cls-4" d="M81.69,575h-66A488.2,488.2,0,0,0,28,632l10.4,18Z"/><polygon class="cls-4" points="168.29 575 81.69 575 81.69 575 81.69 575 124.99 650 168.29 575"/><polygon class="cls-6" points="168.29 575 168.29 575 168.29 575 211.59 650 254.89 575 168.29 575"/><polygon class="cls-3" points="254.9 575 254.89 575 254.89 575 298.19 650 341.5 575 254.9 575"/><polygon class="cls-4" points="341.5 575 341.5 575 341.5 575 384.8 650 428.1 575 341.5 575"/><polygon class="cls-3" points="428.1 575 428.1 575 428.1 575 471.4 650 514.7 575 428.1 575"/><polygon class="cls-4" points="514.7 575 514.7 575 514.7 575 558 650 601.3 575 514.7 575"/><polygon class="cls-4" points="601.31 575 601.3 575 601.3 575 644.6 650 687.9 575 601.31 575"/><polygon class="cls-2" points="687.91 575 687.91 575 687.9 575 731.21 650 774.51 575 687.91 575"/><polygon class="cls-2" points="774.51 575 774.51 575 817.81 650 861.11 575 774.51 575 774.51 575"/><polygon class="cls-6" points="861.11 575 861.11 575 904.41 650 947.71 575 861.11 575 861.11 575"/><path class="cls-5" d="M947.71,575h0l27,46.81q5.88-23,9.55-46.81H947.71Z"/><path class="cls-3" d="M38.39,650l-3.19,5.51A486.76,486.76,0,0,0,64.61,725H81.69Z"/><polygon class="cls-4" points="81.69 725 168.29 725 124.99 650 81.69 725"/><polygon class="cls-4" points="168.29 725 254.89 725 211.59 650 168.29 725"/><polygon class="cls-3" points="254.89 725 341.5 725 298.19 650 254.89 725"/><polygon class="cls-2" points="341.5 725 428.1 725 384.8 650 341.5 725"/><polygon class="cls-4" points="428.1 725 514.7 725 471.4 650 428.1 725"/><polygon class="cls-6" points="514.7 725 601.3 725 558 650 514.7 725"/><polygon class="cls-6" points="601.3 725 687.9 725 644.6 650 601.3 725"/><polygon class="cls-4" points="687.9 725 774.51 725 731.21 650 687.9 725"/><polygon class="cls-4" points="774.51 725 861.11 725 817.81 650 774.51 725"/><path class="cls-4" d="M861.11,725h74.28q2.94-5.67,5.73-11.42L904.41,650Z"/><path class="cls-5" d="M33.39,650c.59,1.84,1.2,3.68,1.81,5.51L38.39,650Z"/><polygon class="cls-2" points="38.39 650 81.69 725 124.99 650 38.39 650"/><polygon class="cls-5" points="124.99 650 168.29 725 211.59 650 124.99 650"/><polygon class="cls-5" points="211.59 650 254.89 725 298.19 650 211.59 650"/><polygon class="cls-4" points="298.19 650 341.5 725 384.8 650 298.19 650"/><polygon class="cls-6" points="384.8 650 428.1 725 471.4 650 384.8 650"/><polygon class="cls-2" points="471.4 650 514.7 725 558 650 471.4 650"/><polygon class="cls-5" points="558 650 601.3 725 644.6 650 558 650"/><polygon class="cls-2" points="644.6 650 687.9 725 731.21 650 644.6 650"/><polygon class="cls-5" points="731.21 650 774.51 725 817.81 650 731.21 650"/><polygon class="cls-3" points="861.11 725 904.41 650 817.81 650 861.11 725"/><path class="cls-5" d="M941.12,713.58A486.86,486.86,0,0,0,966.61,650h-62.2Z"/><path class="cls-4" d="M81.69,725l-8.82,15.28A490.28,490.28,0,0,0,112.55,800H125Z"/><polygon class="cls-5" points="211.59 800 168.29 725 124.99 800 211.59 800"/><polygon class="cls-2" points="298.19 800 254.89 725 211.59 800 298.19 800"/><polygon class="cls-2" points="384.8 800 341.5 725 298.19 800 384.8 800"/><polygon class="cls-5" points="471.4 800 428.1 725 384.8 800 471.4 800"/><polygon class="cls-5" points="558 800 514.7 725 471.4 800 558 800"/><polygon class="cls-3" points="644.6 800 601.3 725 558 800 644.6 800"/><polygon class="cls-6" points="731.21 800 687.9 725 644.6 800 731.21 800"/><polygon class="cls-3" points="817.81 800 774.51 725 731.21 800 817.81 800"/><path class="cls-6" d="M817.81,800h69.64q4.89-6.32,9.58-12.78L861.11,725Z"/><path class="cls-6" d="M64.61,725q4,7.72,8.26,15.28L81.69,725Z"/><polygon class="cls-2" points="168.29 725 81.69 725 124.99 800 168.29 725"/><polygon class="cls-3" points="254.89 725 168.29 725 211.59 800 254.89 725"/><polygon class="cls-4" points="341.5 725 254.89 725 298.19 800 341.5 725"/><polygon class="cls-3" points="428.1 725 341.5 725 384.8 800 428.1 725"/><polygon class="cls-3" points="514.7 725 428.1 725 471.4 800 514.7 725"/><polygon class="cls-2" points="601.3 725 514.7 725 558 800 601.3 725"/><polygon class="cls-4" points="687.9 725 601.3 725 644.6 800 687.9 725"/><polygon class="cls-5" points="774.51 725 687.9 725 731.21 800 774.51 725"/><polygon class="cls-2" points="861.11 725 774.51 725 817.81 800 861.11 725"/><path class="cls-3" d="M897,787.22A490.21,490.21,0,0,0,935.39,725H861.11Z"/><path class="cls-6" d="M119.76,809.06q14.08,17.33,29.69,33.3L125,800Z"/><path class="cls-3" d="M211.59,800l-37.86,65.58q5.37,4.78,10.86,9.42h70.3Z"/><polygon class="cls-4" points="254.89 875 341.5 875 298.19 800 254.89 875"/><polygon class="cls-6" points="384.8 800 341.5 875 428.1 875 384.8 800"/><polygon class="cls-6" points="514.7 875 471.4 800 428.1 875 514.7 875"/><polygon class="cls-5" points="601.3 875 558 800 514.7 875 601.3 875"/><polygon class="cls-2" points="601.3 875 687.9 875 644.6 800 601.3 875"/><polygon class="cls-2" points="687.9 875 774.51 875 731.21 800 687.9 875"/><path class="cls-5" d="M774.51,875h40.9q15.51-13.07,29.9-27.36L817.81,800Z"/><path class="cls-3" d="M112.55,800q3.56,4.57,7.21,9.06L125,800Z"/><path class="cls-4" d="M125,800l24.46,42.36q11.73,12,24.28,23.22L211.59,800Z"/><polygon class="cls-5" points="211.59 800 254.89 875 298.19 800 211.59 800"/><polygon class="cls-3" points="298.19 800 341.5 875 384.8 800 298.19 800"/><polygon class="cls-2" points="471.4 800 384.8 800 428.1 875 471.4 800"/><polygon class="cls-3" points="558 800 471.4 800 514.7 875 558 800"/><polygon class="cls-6" points="644.6 800 558 800 601.3 875 644.6 800"/><polygon class="cls-4" points="644.6 800 687.9 875 731.21 800 644.6 800"/><polygon class="cls-4" points="774.51 875 817.81 800 731.21 800 774.51 875"/><path class="cls-3" d="M845.31,847.64A493.91,493.91,0,0,0,887.45,800H817.81Z"/><path class="cls-2" d="M233.84,911.47a489,489,0,0,0,61.72,34L254.89,875Z"/><path class="cls-6" d="M341.49,875l-41.76,72.33q3,1.35,6.07,2.67h79Z"/><polygon class="cls-5" points="384.8 950 471.4 950 428.1 875 384.8 950"/><polygon class="cls-3" points="471.4 950 558 950 514.7 875 471.4 950"/><polygon class="cls-5" points="558 950 644.6 950 601.3 875 558 950"/><path class="cls-5" d="M644.6,950h49.6q14.81-6.39,29.09-13.72L687.9,875Z"/><path class="cls-4" d="M746.45,923.59q21.07-12.29,40.77-26.56l-12.71-22Z"/><path class="cls-5" d="M184.59,875a493,493,0,0,0,49.25,36.47l21-36.47Z"/><path class="cls-3" d="M254.89,875l40.67,70.43c1.39.64,2.78,1.28,4.17,1.9L341.49,875Z"/><polygon class="cls-4" points="341.5 875 384.8 950 428.1 875 341.5 875"/><polygon class="cls-4" points="428.1 875 471.4 950 514.7 875 428.1 875"/><polygon class="cls-6" points="514.7 875 558 950 601.3 875 514.7 875"/><polygon class="cls-4" points="644.6 950 687.9 875 601.3 875 644.6 950"/><path class="cls-6" d="M687.9,875l35.39,61.28q11.78-6,23.16-12.69L774.51,875Z"/><path class="cls-2" d="M787.22,897q14.5-10.51,28.19-22h-40.9Z"/><path class="cls-4" d="M371.53,973q15.17,4.13,30.73,7.27L384.8,950Z"/><path class="cls-5" d="M449.77,987.46q22.08,2.24,44.7,2.51L471.4,950Z"/><path class="cls-2" d="M535.65,988.71q21.23-1.51,41.91-4.82L558,950Z"/><path class="cls-5" d="M631.88,972q10.93-3,21.65-6.58L644.6,950Z"/><path class="cls-3" d="M305.8,950a486.12,486.12,0,0,0,65.73,23l13.27-23Z"/><path class="cls-2" d="M384.8,950l17.46,30.25q23.37,4.72,47.51,7.21L471.4,950Z"/><path class="cls-6" d="M471.4,950l23.07,40c1.84,0,3.68,0,5.53,0q18,0,35.65-1.29L558,950Z"/><path class="cls-4" d="M558,950l19.56,33.89A487.81,487.81,0,0,0,631.88,972l12.72-22Z"/><path class="cls-3" d="M653.53,965.46q20.76-6.86,40.67-15.46H644.6Z"/><circle class="cls-7" cx="500" cy="500" r="490"/><path id="Kopf" class="cls-8" d="M302,631.13V822.36H594.62V739.13l83,20.82a29,29,0,0,0,35.43-22.35L724.93,611l63.22-4.34L724.93,473.08a295,295,0,0,0,4.5-47.48c0-141.3-117.06-255.83-261.45-255.83S205.51,282.26,205.51,423.55C205.51,490.35,244.83,585.43,302,631.13Z"/><g id="Gehirn"><g id="Gehirn-2" data-name="Gehirn"><g id="Verbindungen"><polyline class="cls-9" points="404.48 564.01 408.1 499.67 331.89 468.83 328.83 397.25 354.87 347.21 428.1 291.55 543.3 291.55 639.81 339.98 637.77 407.25 575.98 450.49 500 470.49 457.51 493.77 432.06 560.15"/><polyline class="cls-9" points="408.1 499.67 369.17 448.83 328.83 397.25 422.23 417.3 457.51 493.77"/><polyline class="cls-9" points="354.87 347.21 402.06 354.36 428.1 291.55 454.45 359.98 500 470.49 588.32 389.51 524.15 372.23 454.45 359.98 402.06 354.36 422.23 417.3 369.17 447.81 331.89 468.83"/><polyline class="cls-9" points="543.3 291.55 524.15 372.23 428.1 291.55"/><polyline class="cls-9" points="637.77 407.25 588.32 389.51 639.81 339.98 524.15 372.23 500 470.49"/></g><g id="Synapsen"><circle id="Gehirn-3" data-name="Gehirn" class="cls-10" cx="428.1" cy="291.55" r="10"/><circle id="Gehirn-4" data-name="Gehirn" class="cls-10" cx="588.32" cy="389.51" r="10"/><circle id="Gehirn-5" data-name="Gehirn" class="cls-10" cx="543.3" cy="291.55" r="10"/><circle id="Gehirn-6" data-name="Gehirn" class="cls-10" cx="639.81" cy="339.98" r="10"/><circle id="Gehirn-7" data-name="Gehirn" class="cls-10" cx="404.48" cy="564.01" r="10"/><circle id="Gehirn-8" data-name="Gehirn" class="cls-10" cx="408.1" cy="499.67" r="10"/><circle id="Gehirn-9" data-name="Gehirn" class="cls-10" cx="369.17" cy="448.83" r="10"/><circle id="Gehirn-10" data-name="Gehirn" class="cls-10" cx="331.89" cy="468.83" r="10"/><circle id="Gehirn-11" data-name="Gehirn" class="cls-10" cx="328.83" cy="397.26" r="10"/><circle id="Gehirn-12" data-name="Gehirn" class="cls-10" cx="354.87" cy="347.21" r="10"/><circle id="Gehirn-13" data-name="Gehirn" class="cls-10" cx="402.06" cy="354.36" r="10"/><circle id="Gehirn-14" data-name="Gehirn" class="cls-10" cx="457.51" cy="493.77" r="10"/><circle id="Gehirn-15" data-name="Gehirn" class="cls-10" cx="432.06" cy="560.15" r="10"/><circle id="Gehirn-16" data-name="Gehirn" class="cls-10" cx="500" cy="470.49" r="10"/><circle id="Gehirn-17" data-name="Gehirn" class="cls-10" cx="575.98" cy="450.49" r="10"/><circle id="Gehirn-18" data-name="Gehirn" class="cls-10" cx="637.77" cy="407.26" r="10"/><circle id="Gehirn-19" data-name="Gehirn" class="cls-10" cx="454.45" cy="359.98" r="10"/></g><g id="Zahnrad"><polygon class="cls-11" points="404.92 436.4 410.02 440.15 408.57 447.72 422.23 449.94 423.72 442.53 429.6 441.77 434.02 447.64 445.08 440.4 440.66 434.28 445.08 428.75 451.81 430.45 454.87 418.02 446.36 415.81 446.19 409.25 452.83 405.77 444.92 395.04 438.62 398.7 433.68 395.04 435.13 387.3 422.23 384.83 420.75 392.23 414.7 393.08 410.53 386.96 399.55 394.53 402.96 400.32 399.55 405.43 392.57 404.4 390.19 416.49 396.83 419.21 397.77 424.83 392.06 428.92 398.79 439.47 404.92 436.4"/><circle id="Gehirn-20" data-name="Gehirn" class="cls-10" cx="422.23" cy="417.3" r="15"/></g><g id="Zahnrad-2" data-name="Zahnrad"><polygon class="cls-11" points="504.2 394.24 510.08 398.56 508.41 407.28 524.15 409.83 525.87 401.3 532.63 400.42 537.73 407.19 550.47 398.85 545.37 391.79 550.47 385.42 558.22 387.38 561.75 373.07 551.94 370.52 551.75 362.97 559.39 358.95 550.28 346.6 543.02 350.81 537.34 346.6 539 337.68 524.15 334.83 522.43 343.36 515.47 344.34 510.67 337.28 498.02 346.01 501.94 352.68 498.02 358.56 489.98 357.38 487.24 371.3 494.88 374.44 495.96 380.91 489.39 385.62 497.14 397.77 504.2 394.24"/><circle id="Gehirn-21" data-name="Gehirn" class="cls-10" cx="524.15" cy="372.23" r="17.28"/></g></g></g><line class="cls-12" x1="623.69" y1="438.57" x2="671.84" y2="438.57"/><line class="cls-12" x1="615.67" y1="414.5" x2="679.86" y2="414.5"/><path class="cls-13" d="M679.25,387.66H615.06s-8.63-53-15.44-69.45c-9.63-23.23-40.1-42.1-40.12-92.27,0-40.67,26.24-80.24,88.27-80.24,59.53,0,88.26,38.75,88.26,80.5,0,55.25-30.3,68.92-40.12,92C688.92,334.64,679.25,387.66,679.25,387.66Z"/><line class="cls-12" x1="497.77" y1="219.21" x2="531.64" y2="219.21"/><line class="cls-12" x1="542.95" y1="112.32" x2="565.08" y2="136.08"/><line class="cls-12" x1="647.77" y1="72.19" x2="647.77" y2="103.33"/><line class="cls-12" x1="797.77" y1="219.21" x2="763.9" y2="219.21"/><line class="cls-12" x1="752.58" y1="112.32" x2="730.46" y2="136.08"/></g></svg>