<svg xmlns="http://www.w3.org/2000/svg" viewBox="0 0 1000 1000"><defs><style>.cls-1{fill:#f7f644;}.cls-2,.cls-6{fill:#62b0f4;}.cls-3{fill:#ff7149;}.cls-4{fill:#24f45c;}.cls-5{fill:#b800d9;}.cls-6,.cls-7,.cls-8,.cls-9{stroke:#000;}.cls-6,.cls-8{stroke-miterlimit:10;}.cls-6{stroke-width:20px;}.cls-7{fill:#fff;stroke-width:30px;}.cls-7,.cls-9{stroke-linejoin:round;}.cls-8{fill:none;stroke-linecap:round;}.cls-8,.cls-9{stroke-width:20.06px;}.cls-9{fill:#ff0;}</style></defs><title>Logo low res V2</title><g id="Logo"><path class="cls-1" d="M183.06,126.3l-2.56,2.19h3.82Z"/><path class="cls-1" d="M387.21,128.49l-52-90.08A489.47,489.47,0,0,0,188,122.19l-3.64,6.3Z"/><path class="cls-1" d="M590.1,128.49,522,10.49Q511,10,500,10q-23.06,0-45.59,2.1l-67.2,116.39Z"/><path class="cls-2" d="M793,128.49l-20.76-36A487.81,487.81,0,0,0,645.78,32.05L590.1,128.49Z"/><path class="cls-3" d="M819.5,128.49q-8.81-7.59-18-14.76L793,128.49Z"/><path class="cls-3" d="M188,122.19c-1.64,1.36-3.28,2.73-4.9,4.11l1.26,2.19Z"/><path class="cls-3" d="M454.41,12.1A487.15,487.15,0,0,0,335.2,38.41l52,90.08Z"/><path class="cls-3" d="M645.78,32.05A489,489,0,0,0,522,10.49l68.12,118Z"/><path class="cls-1" d="M801.51,113.73q-14.22-11.13-29.28-21.2l20.76,36Z"/><path class="cls-2" d="M65.28,273.71q-7.8,15-14.59,30.49H82.88Z"/><polygon class="cls-3" points="184.32 128.49 82.88 304.2 285.77 304.2 184.32 128.49"/><polygon class="cls-4" points="488.66 304.2 387.21 128.49 285.77 304.2 488.66 304.2"/><polygon class="cls-5" points="691.55 304.2 590.1 128.49 488.66 304.2 691.55 304.2"/><polygon class="cls-2" points="894.44 304.2 792.99 128.49 691.55 304.2 894.44 304.2"/><path class="cls-1" d="M949.31,304.2a489.6,489.6,0,0,0-25.67-50.58l-29.2,50.58Z"/><path class="cls-4" d="M184.32,128.49H180.5A491.83,491.83,0,0,0,65.28,273.71l17.6,30.49Z"/><polygon class="cls-2" points="387.21 128.49 184.32 128.49 285.77 304.2 387.21 128.49"/><polygon class="cls-3" points="590.1 128.49 387.21 128.49 488.66 304.2 590.1 128.49"/><polygon class="cls-4" points="792.99 128.49 590.1 128.49 691.55 304.2 792.99 128.49"/><path class="cls-5" d="M894.44,304.2l29.2-50.58A492.63,492.63,0,0,0,819.5,128.49H793Z"/><path class="cls-2" d="M82.88,304.2,16.7,418.83a490.69,490.69,0,0,0-6.29,61.08H184.32Z"/><polygon class="cls-3" points="285.77 304.2 184.32 479.91 387.21 479.91 285.77 304.2"/><polygon class="cls-4" points="488.66 304.2 387.21 479.91 590.1 479.91 488.66 304.2"/><polygon class="cls-5" points="590.1 479.91 792.99 479.91 691.55 304.2 590.1 479.91"/><path class="cls-2" d="M793,479.91h196.6q-.24-6-.63-12L894.44,304.2Z"/><path class="cls-3" d="M50.69,304.2a485.66,485.66,0,0,0-34,114.63L82.88,304.2Z"/><polygon class="cls-5" points="82.88 304.2 184.32 479.91 285.77 304.2 82.88 304.2"/><polygon class="cls-1" points="285.77 304.2 387.21 479.91 488.66 304.2 285.77 304.2"/><polygon class="cls-1" points="691.55 304.2 488.66 304.2 590.1 479.91 691.55 304.2"/><polygon class="cls-1" points="792.99 479.91 894.44 304.2 691.55 304.2 792.99 479.91"/><path class="cls-4" d="M989,467.92A487.16,487.16,0,0,0,949.31,304.2H894.44Z"/><path class="cls-4" d="M82.87,655.61,11,531.07A488.23,488.23,0,0,0,35.23,655.61Z"/><polygon class="cls-2" points="285.76 655.61 184.32 479.91 82.88 655.61 285.76 655.61 285.76 655.61"/><polygon class="cls-5" points="285.77 655.61 488.65 655.61 488.65 655.61 387.21 479.91 285.77 655.61"/><polygon class="cls-3" points="488.66 655.61 691.54 655.61 691.54 655.61 590.1 479.91 488.66 655.61"/><polygon class="cls-4" points="894.43 655.61 894.43 655.61 792.99 479.91 691.55 655.61 894.43 655.61"/><path class="cls-1" d="M964.77,655.61A489.5,489.5,0,0,0,990,500c0-3.25,0-6.49-.1-9.72L894.44,655.61Z"/><path class="cls-1" d="M82.88,655.61l101.44-175.7H10.41Q10,489.9,10,500q0,15.66,1,31.07l71.9,124.54Z"/><polygon class="cls-1" points="285.77 655.61 387.21 479.91 184.32 479.91 285.76 655.61 285.77 655.61"/><polygon class="cls-2" points="387.21 479.91 488.65 655.61 488.66 655.61 590.1 479.91 387.21 479.91"/><polygon class="cls-2" points="691.54 655.61 691.55 655.61 792.99 479.91 590.1 479.91 691.54 655.61"/><path class="cls-3" d="M894.43,655.61h0L989.9,490.28q-.1-5.2-.31-10.37H793Z"/><path class="cls-4" d="M82.87,655.61,54.61,704.55A491.13,491.13,0,0,0,139,831.32h45.31Z"/><polygon class="cls-1" points="184.31 831.32 387.2 831.32 285.76 655.61 184.31 831.32"/><polygon class="cls-2" points="387.2 831.32 590.1 831.32 488.65 655.61 387.2 831.32"/><polygon class="cls-4" points="590.1 831.32 792.99 831.32 691.54 655.61 590.1 831.32"/><path class="cls-2" d="M793,831.32h68a491.6,491.6,0,0,0,74-105.5l-40.54-70.21Z"/><path class="cls-3" d="M35.23,655.61a488.1,488.1,0,0,0,19.38,48.94l28.26-48.94Z"/><polygon class="cls-5" points="82.88 655.61 82.87 655.61 82.87 655.61 184.31 831.32 285.76 655.61 82.88 655.61"/><polygon class="cls-3" points="285.77 655.61 285.76 655.61 285.76 655.61 387.2 831.32 488.65 655.61 285.77 655.61"/><polygon class="cls-5" points="488.66 655.61 488.65 655.61 488.65 655.61 590.1 831.32 691.54 655.61 488.66 655.61"/><polygon class="cls-5" points="691.55 655.61 691.54 655.61 691.54 655.61 792.99 831.32 894.43 655.61 691.55 655.61"/><path class="cls-4" d="M894.43,655.61h0L935,725.82a488,488,0,0,0,29.8-70.21H894.43Z"/><path class="cls-4" d="M167.7,860.1A492.11,492.11,0,0,0,228.61,908l-44.3-76.71Z"/><path class="cls-5" d="M316.17,954.34a487.86,487.86,0,0,0,162.38,35.19L387.21,831.32Z"/><path class="cls-2" d="M498.48,990H500a489.24,489.24,0,0,0,165.22-28.56L590.1,831.32Z"/><path class="cls-2" d="M736.42,929.28a490.82,490.82,0,0,0,80.87-55.87L793,831.32Z"/><path class="cls-5" d="M139,831.32q13.74,15,28.7,28.78l16.61-28.78Z"/><path class="cls-2" d="M184.31,831.32,228.61,908a488.29,488.29,0,0,0,87.56,46.31l71-123Z"/><path class="cls-4" d="M387.21,831.32l91.34,158.21q9.92.42,19.93.46L590.1,831.32Z"/><path class="cls-1" d="M590.1,831.32l75.12,130.12a486.91,486.91,0,0,0,71.2-32.16l56.57-98Z"/><path class="cls-4" d="M793,831.32l24.3,42.09A493.51,493.51,0,0,0,861,831.32Z"/><circle class="cls-6" cx="500" cy="500" r="490"/><path id="Kopf" class="cls-7" d="M274.43,642.05V871.81H626v-100l99.77,25A34.82,34.82,0,0,0,768.28,770l14.23-152.15,76-5.21-76-160.44c3-17.16,5.4-39,5.4-57.05,0-169.75-140.63-307.36-314.11-307.36S158.47,222.91,158.47,392.66C158.47,472.92,205.71,587.15,274.43,642.05Z"/><line class="cls-8" x1="623.69" y1="438.57" x2="671.84" y2="438.57"/><line class="cls-8" x1="615.67" y1="414.5" x2="679.86" y2="414.5"/><path class="cls-9" d="M679.25,387.66H615.06s-8.63-53-15.44-69.45c-9.63-23.23-40.1-42.1-40.12-92.27,0-40.67,26.24-80.24,88.27-80.24,59.53,0,88.26,38.75,88.26,80.5,0,55.25-30.3,68.92-40.12,92C688.92,334.64,679.25,387.66,679.25,387.66Z"/><line class="cls-8" x1="497.77" y1="219.21" x2="531.64" y2="219.21"/><line class="cls-8" x1="532.95" y1="122.32" x2="555.08" y2="146.08"/><line class="cls-8" x1="647.77" y1="72.19" x2="647.77" y2="103.33"/><line class="cls-8" x1="797.77" y1="219.21" x2="763.9" y2="219.21"/><line class="cls-8" x1="762.58" y1="122.32" x2="740.46" y2="146.08"/></g></svg>